# xmcd
#
# Track frame offsets: 
#        150
#        15424
#        31979
#        42848
#        52955
#        67164
#        82428
#        99468
#        126327
#        139270
#        156111
#
# Disc length: 2331 seconds
#
# Revision: 0
# Processed by: cddbd v1.4PL0 Copyright (c) Steve Scherf et al.
# Submitted via: ExactAudioCopy v0.90b4
#
DISCID=9609190b
DTITLE=Currituck Co - Unpacking my Library
DYEAR=2002
DGENRE=Acoustic
TTITLE0=Concrete
TTITLE1=Hang your coat
TTITLE2=Antichrist
TTITLE3=The Collision
TTITLE4=Henry
TTITLE5=Let it rain
TTITLE6=Where is my friend
TTITLE7=Lie beside me
TTITLE8=Paris
TTITLE9=Now you're leaving
TTITLE10=Old song
EXTD=
EXTT0=
EXTT1=
EXTT2=
EXTT3=
EXTT4=
EXTT5=
EXTT6=
EXTT7=
EXTT8=
EXTT9=
EXTT10=
PLAYORDER=
